# xmcd
#
# Track frame offsets:
#	150
#	15205
#	33812
#	48377
#	60954
#	72171
#	84790
#	95760
#	103443
#	115583
#	128759
#	140960
#	153365
#
# Disc length: 2211 seconds
# Revision: 0
# Processed by: cddbd v1.5.2PL0 Copyright (c) Steve Scherf et al.
# Submitted via: dBpowerAMP V12.0
#
DISCID=a008a10d
DTITLE=Slim Newton - For Old Times Sake
DYEAR=1900
DGENRE=Country
TTITLE0=Rugged Not Buggered
TTITLE1=What Did They Do
TTITLE2=I'd Like to Sing About
TTITLE3=Not Really Funny at All
TTITLE4=That's Me Without You
TTITLE5=Fool to Make a Fool
TTITLE6=For Old Times Sake (ft. Rex Dallas)
TTITLE7=They Call it a Guitar
TTITLE8=Let The Big Rigs Roll Along
TTITLE9=Any Old Time
TTITLE10=Tou're Not Wrong
TTITLE11=Hound Dog Lonesome
TTITLE12=Leaving on a Jet Plane (ft. Eric Newton)
EXTD=
EXTT0=
EXTT1=
EXTT2=
EXTT3=
EXTT4=
EXTT5=
EXTT6=
EXTT7=
EXTT8=
EXTT9=
EXTT10=
EXTT11=
EXTT12=
PLAYORDER=
